<svg width="24" height="24" viewBox="0 0 24 24" fill="none" xmlns="http://www.w3.org/2000/svg">
<g clip-path="url(#clip0_141_1186)">
<path d="M23.536 3.57897C23.7988 3.2427 23.9568 2.84456 23.9923 2.42898C24.0278 2.01341 23.9395 1.59675 23.7371 1.22553C23.5347 0.854311 23.2263 0.543133 22.8463 0.326735C22.4662 0.110336 22.0295 -0.00276687 21.5849 5.14111e-05H2.39356C1.95099 0.00312915 1.51788 0.120437 1.14173 0.339107C0.76558 0.557777 0.460928 0.86936 0.261192 1.23968C0.0611735 1.60506 -0.0267894 2.01532 0.00709298 2.42479C0.0409754 2.83427 0.195374 3.2269 0.453105 3.55898L8.02301 13.7259V21.7235C8.02047 22.0368 8.08746 22.3472 8.21971 22.6349C8.35197 22.9226 8.54661 23.1814 8.79125 23.3948C9.0359 23.6083 9.32522 23.7716 9.64082 23.8746C9.95642 23.9775 10.2914 24.0178 10.6245 23.9928C11.2126 24.0072 11.7929 23.8651 12.2984 23.5829L14.9319 22.0434C15.2286 21.8328 15.4695 21.5609 15.636 21.2488C15.8024 20.9367 15.8898 20.5929 15.8914 20.2439V13.7359L23.536 3.57897ZM13.4712 12.5763C13.3109 12.7861 13.2251 13.0379 13.226 13.296V19.7741C13.2265 19.8604 13.2032 19.9453 13.1584 20.0206C13.1136 20.0959 13.0487 20.1591 12.9701 20.204L11.4668 21.0337C11.3857 21.0776 11.2938 21.1007 11.2002 21.1007C11.1067 21.1007 11.0147 21.0776 10.9337 21.0337C10.8531 20.9901 10.7861 20.9275 10.7394 20.8521C10.6926 20.7766 10.6677 20.6911 10.6671 20.6038V13.336C10.6682 13.0825 10.5863 12.8348 10.4326 12.6262L3.45974 3.28906C3.41002 3.21038 3.38378 3.1206 3.38378 3.02914C3.38378 2.93768 3.41002 2.8479 3.45974 2.76922C3.50518 2.68696 3.57411 2.61816 3.65883 2.57049C3.74355 2.52283 3.84073 2.49818 3.93953 2.4993H20.0496C20.1484 2.49818 20.2455 2.52283 20.3303 2.57049C20.415 2.61816 20.4839 2.68696 20.5293 2.76922C20.5791 2.8479 20.6053 2.93768 20.6053 3.02914C20.6053 3.1206 20.5791 3.21038 20.5293 3.28906L13.4712 12.5763Z" fill="#6F6F6F"/>
</g>
<defs>
<clipPath id="clip0_141_1186">
<rect width="24" height="24" fill="white"/>
</clipPath>
</defs>
</svg>
